<?xml version="1.0" encoding="UTF-8" standalone="no"?><svg xmlns="http://www.w3.org/2000/svg" xmlns:xlink="http://www.w3.org/1999/xlink" clip-rule="evenodd" stroke-miterlimit="10" viewBox="0 0 1920 1080"><desc>SVG generated by Keynote</desc><defs></defs><g transform="matrix(1.00, 0.00, -0.00, -1.00, 0.0, 1080.0)"><path d="M 0.0 1080.0 L 1920.0 1080.0 L 1920.0 0.0 L 0.0 0.0 Z M 0.0 1080.0 " fill="#000000"></path><text xml:space="preserve" font-family="Helvetica-Light,Helvetica" font-size="112.0" fill="#FEFFFF" transform="matrix(1.00, 0.00, -0.00, -1.00, 600.0, 920.8)">R</text><text xml:space="preserve" font-family="Helvetica-Light,Helvetica" font-size="112.0" fill="#FEFFFF" transform="matrix(1.00, 0.00, -0.00, -1.00, 674.7, 920.8)">e</text><text xml:space="preserve" font-family="Helvetica-Light,Helvetica" font-size="112.0" fill="#FEFFFF" transform="matrix(1.00, 0.00, -0.00, -1.00, 737.0, 920.8)">v</text><text xml:space="preserve" font-family="Helvetica-Light,Helvetica" font-size="112.0" fill="#FEFFFF" transform="matrix(1.00, 0.00, -0.00, -1.00, 793.0, 920.8)">e</text><text xml:space="preserve" font-family="Helvetica-Light,Helvetica" font-size="112.0" fill="#FEFFFF" transform="matrix(1.00, 0.00, -0.00, -1.00, 855.3, 920.8)">r</text><text xml:space="preserve" font-family="Helvetica-Light,Helvetica" font-size="112.0" fill="#FEFFFF" transform="matrix(1.00, 0.00, -0.00, -1.00, 892.6, 920.8)">s</text><text xml:space="preserve" font-family="Helvetica-Light,Helvetica" font-size="112.0" fill="#FEFFFF" transform="matrix(1.00, 0.00, -0.00, -1.00, 948.6, 920.8)">e</text><text xml:space="preserve" font-family="Helvetica-Light,Helvetica" font-size="112.0" fill="#FEFFFF" transform="matrix(1.00, 0.00, -0.00, -1.00, 1010.8, 920.8)"> </text><text xml:space="preserve" font-family="Helvetica-Light,Helvetica" font-size="112.0" fill="#FEFFFF" transform="matrix(1.00, 0.00, -0.00, -1.00, 1042.0, 920.8)">P</text><text xml:space="preserve" font-family="Helvetica-Light,Helvetica" font-size="112.0" fill="#FEFFFF" transform="matrix(1.00, 0.00, -0.00, -1.00, 1110.4, 920.8)">r</text><text xml:space="preserve" font-family="Helvetica-Light,Helvetica" font-size="112.0" fill="#FEFFFF" transform="matrix(1.00, 0.00, -0.00, -1.00, 1145.7, 920.8)">o</text><text xml:space="preserve" font-family="Helvetica-Light,Helvetica" font-size="112.0" fill="#FEFFFF" transform="matrix(1.00, 0.00, -0.00, -1.00, 1208.0, 920.8)">x</text><text xml:space="preserve" font-family="Helvetica-Light,Helvetica" font-size="112.0" fill="#FEFFFF" transform="matrix(1.00, 0.00, -0.00, -1.00, 1264.0, 920.8)">y</text><text xml:space="preserve" font-family="Helvetica-Light,Helvetica" font-size="39.0" fill="#FEFFFF" transform="matrix(1.00, 0.00, -0.00, -1.00, 137.0, 693.5)">•</text><text xml:space="preserve" font-family="Helvetica-Light,Helvetica" font-size="52.0" fill="#FEFFFF" transform="matrix(1.00, 0.00, -0.00, -1.00, 187.0, 689.0)">v</text><text xml:space="preserve" font-family="Helvetica-Light,Helvetica" font-size="52.0" fill="#FEFFFF" transform="matrix(1.00, 0.00, -0.00, -1.00, 213.0, 689.0)">a</text><text xml:space="preserve" font-family="Helvetica-Light,Helvetica" font-size="52.0" fill="#FEFFFF" transform="matrix(1.00, 0.00, -0.00, -1.00, 241.9, 689.0)">r</text><text xml:space="preserve" font-family="Helvetica-Light,Helvetica" font-size="52.0" fill="#FEFFFF" transform="matrix(1.00, 0.00, -0.00, -1.00, 260.2, 689.0)">n</text><text xml:space="preserve" font-family="Helvetica-Light,Helvetica" font-size="52.0" fill="#FEFFFF" transform="matrix(1.00, 0.00, -0.00, -1.00, 289.1, 689.0)">i</text><text xml:space="preserve" font-family="Helvetica-Light,Helvetica" font-size="52.0" fill="#FEFFFF" transform="matrix(1.00, 0.00, -0.00, -1.00, 300.6, 689.0)">s</text><text xml:space="preserve" font-family="Helvetica-Light,Helvetica" font-size="52.0" fill="#FEFFFF" transform="matrix(1.00, 0.00, -0.00, -1.00, 326.6, 689.0)">h</text><text xml:space="preserve" font-family="Helvetica-Light,Helvetica" font-size="52.0" fill="#FEFFFF" transform="matrix(1.00, 0.00, -0.00, -1.00, 355.5, 689.0)"> </text><text xml:space="preserve" font-family="Helvetica-Light,Helvetica" font-size="52.0" fill="#FEFFFF" transform="matrix(1.00, 0.00, -0.00, -1.00, 370.0, 689.0)">-</text><text xml:space="preserve" font-family="Helvetica-Light,Helvetica" font-size="52.0" fill="#FEFFFF" transform="matrix(1.00, 0.00, -0.00, -1.00, 387.3, 689.0)"> </text><text xml:space="preserve" font-family="Helvetica-Light,Helvetica" font-size="52.0" fill="#FEFFFF" transform="matrix(1.00, 0.00, -0.00, -1.00, 401.8, 689.0)">v</text><text xml:space="preserve" font-family="Helvetica-Light,Helvetica" font-size="52.0" fill="#FEFFFF" transform="matrix(1.00, 0.00, -0.00, -1.00, 427.8, 689.0)">a</text><text xml:space="preserve" font-family="Helvetica-Light,Helvetica" font-size="52.0" fill="#FEFFFF" transform="matrix(1.00, 0.00, -0.00, -1.00, 456.7, 689.0)">r</text><text xml:space="preserve" font-family="Helvetica-Light,Helvetica" font-size="52.0" fill="#FEFFFF" transform="matrix(1.00, 0.00, -0.00, -1.00, 474.9, 689.0)">n</text><text xml:space="preserve" font-family="Helvetica-Light,Helvetica" font-size="52.0" fill="#FEFFFF" transform="matrix(1.00, 0.00, -0.00, -1.00, 503.8, 689.0)">i</text><text xml:space="preserve" font-family="Helvetica-Light,Helvetica" font-size="52.0" fill="#FEFFFF" transform="matrix(1.00, 0.00, -0.00, -1.00, 515.4, 689.0)">s</text><text xml:space="preserve" font-family="Helvetica-Light,Helvetica" font-size="52.0" fill="#FEFFFF" transform="matrix(1.00, 0.00, -0.00, -1.00, 541.4, 689.0)">h</text><text xml:space="preserve" font-family="Helvetica-Light,Helvetica" font-size="52.0" fill="#FEFFFF" transform="matrix(1.00, 0.00, -0.00, -1.00, 570.3, 689.0)">-</text><text xml:space="preserve" font-family="Helvetica-Light,Helvetica" font-size="52.0" fill="#FEFFFF" transform="matrix(1.00, 0.00, -0.00, -1.00, 587.6, 689.0)">c</text><text xml:space="preserve" font-family="Helvetica-Light,Helvetica" font-size="52.0" fill="#FEFFFF" transform="matrix(1.00, 0.00, -0.00, -1.00, 616.5, 689.0)">a</text><text xml:space="preserve" font-family="Helvetica-Light,Helvetica" font-size="52.0" fill="#FEFFFF" transform="matrix(1.00, 0.00, -0.00, -1.00, 645.4, 689.0)">c</text><text xml:space="preserve" font-family="Helvetica-Light,Helvetica" font-size="52.0" fill="#FEFFFF" transform="matrix(1.00, 0.00, -0.00, -1.00, 674.3, 689.0)">h</text><text xml:space="preserve" font-family="Helvetica-Light,Helvetica" font-size="52.0" fill="#FEFFFF" transform="matrix(1.00, 0.00, -0.00, -1.00, 703.3, 689.0)">e</text><text xml:space="preserve" font-family="Helvetica-Light,Helvetica" font-size="52.0" fill="#FEFFFF" transform="matrix(1.00, 0.00, -0.00, -1.00, 732.2, 689.0)">.</text><text xml:space="preserve" font-family="Helvetica-Light,Helvetica" font-size="52.0" fill="#FEFFFF" transform="matrix(1.00, 0.00, -0.00, -1.00, 746.6, 689.0)">o</text><text xml:space="preserve" font-family="Helvetica-Light,Helvetica" font-size="52.0" fill="#FEFFFF" transform="matrix(1.00, 0.00, -0.00, -1.00, 775.5, 689.0)">r</text><text xml:space="preserve" font-family="Helvetica-Light,Helvetica" font-size="52.0" fill="#FEFFFF" transform="matrix(1.00, 0.00, -0.00, -1.00, 792.9, 689.0)">g</text><text xml:space="preserve" font-family="Helvetica-Light,Helvetica" font-size="52.0" fill="#FEFFFF" transform="matrix(1.00, 0.00, -0.00, -1.00, 824.6, 689.0)"> </text><text xml:space="preserve" font-family="Helvetica-Light,Helvetica" font-size="52.0" fill="#FEFFFF" transform="matrix(1.00, 0.00, -0.00, -1.00, 839.1, 689.0)"> </text><g><clipPath id="clip0x600001eb4e20"><path d="M 400.8 682.8 L 824.6 682.8 L 824.6 687.4 L 400.8 687.4 Z M 400.8 682.8 "></path></clipPath><g clip-path="url(#clip0x600001eb4e20)"><path d="M 268.8 146.9 L 691.6 146.9 " fill="none" stroke="#FEFFFF" stroke-width="2.60" transform="matrix(1.00, 0.00, 0.00, -1.00, 133.0, 832.0)"></path></g></g><text xml:space="preserve" font-family="Helvetica-Light,Helvetica" font-size="39.0" fill="#FEFFFF" transform="matrix(1.00, 0.00, -0.00, -1.00, 137.0, 572.5)">•</text><text xml:space="preserve" font-family="Helvetica-Light,Helvetica" font-size="52.0" fill="#FEFFFF" transform="matrix(1.00, 0.00, -0.00, -1.00, 187.0, 568.0)">n</text><text xml:space="preserve" font-family="Helvetica-Light,Helvetica" font-size="52.0" fill="#FEFFFF" transform="matrix(1.00, 0.00, -0.00, -1.00, 215.9, 568.0)">g</text><text xml:space="preserve" font-family="Helvetica-Light,Helvetica" font-size="52.0" fill="#FEFFFF" transform="matrix(1.00, 0.00, -0.00, -1.00, 247.7, 568.0)">i</text><text xml:space="preserve" font-family="Helvetica-Light,Helvetica" font-size="52.0" fill="#FEFFFF" transform="matrix(1.00, 0.00, -0.00, -1.00, 259.2, 568.0)">n</text><text xml:space="preserve" font-family="Helvetica-Light,Helvetica" font-size="52.0" fill="#FEFFFF" transform="matrix(1.00, 0.00, -0.00, -1.00, 288.1, 568.0)">x</text><text xml:space="preserve" font-family="Helvetica-Light,Helvetica" font-size="52.0" fill="#FEFFFF" transform="matrix(1.00, 0.00, -0.00, -1.00, 314.1, 568.0)"> </text><text xml:space="preserve" font-family="Helvetica-Light,Helvetica" font-size="52.0" fill="#FEFFFF" transform="matrix(1.00, 0.00, -0.00, -1.00, 328.6, 568.0)">-</text><text xml:space="preserve" font-family="Helvetica-Light,Helvetica" font-size="52.0" fill="#FEFFFF" transform="matrix(1.00, 0.00, -0.00, -1.00, 345.9, 568.0)"> </text><text xml:space="preserve" font-family="Helvetica-Light,Helvetica" font-size="52.0" fill="#FEFFFF" transform="matrix(1.00, 0.00, -0.00, -1.00, 360.4, 568.0)">n</text><text xml:space="preserve" font-family="Helvetica-Light,Helvetica" font-size="52.0" fill="#FEFFFF" transform="matrix(1.00, 0.00, -0.00, -1.00, 389.3, 568.0)">g</text><text xml:space="preserve" font-family="Helvetica-Light,Helvetica" font-size="52.0" fill="#FEFFFF" transform="matrix(1.00, 0.00, -0.00, -1.00, 421.1, 568.0)">i</text><text xml:space="preserve" font-family="Helvetica-Light,Helvetica" font-size="52.0" fill="#FEFFFF" transform="matrix(1.00, 0.00, -0.00, -1.00, 432.6, 568.0)">n</text><text xml:space="preserve" font-family="Helvetica-Light,Helvetica" font-size="52.0" fill="#FEFFFF" transform="matrix(1.00, 0.00, -0.00, -1.00, 461.5, 568.0)">x</text><text xml:space="preserve" font-family="Helvetica-Light,Helvetica" font-size="52.0" fill="#FEFFFF" transform="matrix(1.00, 0.00, -0.00, -1.00, 487.5, 568.0)">.</text><text xml:space="preserve" font-family="Helvetica-Light,Helvetica" font-size="52.0" fill="#FEFFFF" transform="matrix(1.00, 0.00, -0.00, -1.00, 502.0, 568.0)">o</text><text xml:space="preserve" font-family="Helvetica-Light,Helvetica" font-size="52.0" fill="#FEFFFF" transform="matrix(1.00, 0.00, -0.00, -1.00, 530.9, 568.0)">r</text><text xml:space="preserve" font-family="Helvetica-Light,Helvetica" font-size="52.0" fill="#FEFFFF" transform="matrix(1.00, 0.00, -0.00, -1.00, 548.2, 568.0)">g</text><text xml:space="preserve" font-family="Helvetica-Light,Helvetica" font-size="52.0" fill="#FEFFFF" transform="matrix(1.00, 0.00, -0.00, -1.00, 580.0, 568.0)"> </text><text xml:space="preserve" font-family="Helvetica-Light,Helvetica" font-size="52.0" fill="#FEFFFF" transform="matrix(1.00, 0.00, -0.00, -1.00, 594.4, 568.0)"> </text><g><clipPath id="clip0x600001eb5840"><path d="M 359.4 561.8 L 580.0 561.8 L 580.0 566.4 L 359.4 566.4 Z M 359.4 561.8 "></path></clipPath><g clip-path="url(#clip0x600001eb5840)"><path d="M 227.4 267.9 L 447.0 267.9 " fill="none" stroke="#FEFFFF" stroke-width="2.60" transform="matrix(1.00, 0.00, 0.00, -1.00, 133.0, 832.0)"></path></g></g><text xml:space="preserve" font-family="Helvetica-Light,Helvetica" font-size="39.0" fill="#FEFFFF" transform="matrix(1.00, 0.00, -0.00, -1.00, 137.0, 451.5)">•</text><text xml:space="preserve" font-family="Helvetica-Light,Helvetica" font-size="52.0" fill="#FEFFFF" transform="matrix(1.00, 0.00, -0.00, -1.00, 187.0, 447.0)">h</text><text xml:space="preserve" font-family="Helvetica-Light,Helvetica" font-size="52.0" fill="#FEFFFF" transform="matrix(1.00, 0.00, -0.00, -1.00, 215.9, 447.0)">a</text><text xml:space="preserve" font-family="Helvetica-Light,Helvetica" font-size="52.0" fill="#FEFFFF" transform="matrix(1.00, 0.00, -0.00, -1.00, 244.8, 447.0)">p</text><text xml:space="preserve" font-family="Helvetica-Light,Helvetica" font-size="52.0" fill="#FEFFFF" transform="matrix(1.00, 0.00, -0.00, -1.00, 276.6, 447.0)">r</text><text xml:space="preserve" font-family="Helvetica-Light,Helvetica" font-size="52.0" fill="#FEFFFF" transform="matrix(1.00, 0.00, -0.00, -1.00, 293.0, 447.0)">o</text><text xml:space="preserve" font-family="Helvetica-Light,Helvetica" font-size="52.0" fill="#FEFFFF" transform="matrix(1.00, 0.00, -0.00, -1.00, 321.9, 447.0)">x</text><text xml:space="preserve" font-family="Helvetica-Light,Helvetica" font-size="52.0" fill="#FEFFFF" transform="matrix(1.00, 0.00, -0.00, -1.00, 347.9, 447.0)">y</text><text xml:space="preserve" font-family="Helvetica-Light,Helvetica" font-size="52.0" fill="#FEFFFF" transform="matrix(1.00, 0.00, -0.00, -1.00, 373.9, 447.0)"> </text><text xml:space="preserve" font-family="Helvetica-Light,Helvetica" font-size="52.0" fill="#FEFFFF" transform="matrix(1.00, 0.00, -0.00, -1.00, 388.3, 447.0)">-</text><text xml:space="preserve" font-family="Helvetica-Light,Helvetica" font-size="52.0" fill="#FEFFFF" transform="matrix(1.00, 0.00, -0.00, -1.00, 405.7, 447.0)"> </text><text xml:space="preserve" font-family="Helvetica-Light,Helvetica" font-size="52.0" fill="#FEFFFF" transform="matrix(1.00, 0.00, -0.00, -1.00, 420.1, 447.0)">h</text><text xml:space="preserve" font-family="Helvetica-Light,Helvetica" font-size="52.0" fill="#FEFFFF" transform="matrix(1.00, 0.00, -0.00, -1.00, 449.0, 447.0)">a</text><text xml:space="preserve" font-family="Helvetica-Light,Helvetica" font-size="52.0" fill="#FEFFFF" transform="matrix(1.00, 0.00, -0.00, -1.00, 477.9, 447.0)">p</text><text xml:space="preserve" font-family="Helvetica-Light,Helvetica" font-size="52.0" fill="#FEFFFF" transform="matrix(1.00, 0.00, -0.00, -1.00, 509.7, 447.0)">r</text><text xml:space="preserve" font-family="Helvetica-Light,Helvetica" font-size="52.0" fill="#FEFFFF" transform="matrix(1.00, 0.00, -0.00, -1.00, 526.1, 447.0)">o</text><text xml:space="preserve" font-family="Helvetica-Light,Helvetica" font-size="52.0" fill="#FEFFFF" transform="matrix(1.00, 0.00, -0.00, -1.00, 555.0, 447.0)">x</text><text xml:space="preserve" font-family="Helvetica-Light,Helvetica" font-size="52.0" fill="#FEFFFF" transform="matrix(1.00, 0.00, -0.00, -1.00, 581.0, 447.0)">y</text><text xml:space="preserve" font-family="Helvetica-Light,Helvetica" font-size="52.0" fill="#FEFFFF" transform="matrix(1.00, 0.00, -0.00, -1.00, 602.2, 447.0)">.</text><text xml:space="preserve" font-family="Helvetica-Light,Helvetica" font-size="52.0" fill="#FEFFFF" transform="matrix(1.00, 0.00, -0.00, -1.00, 616.7, 447.0)">o</text><text xml:space="preserve" font-family="Helvetica-Light,Helvetica" font-size="52.0" fill="#FEFFFF" transform="matrix(1.00, 0.00, -0.00, -1.00, 645.6, 447.0)">r</text><text xml:space="preserve" font-family="Helvetica-Light,Helvetica" font-size="52.0" fill="#FEFFFF" transform="matrix(1.00, 0.00, -0.00, -1.00, 662.9, 447.0)">g</text><text xml:space="preserve" font-family="Helvetica-Light,Helvetica" font-size="52.0" fill="#FEFFFF" transform="matrix(1.00, 0.00, -0.00, -1.00, 694.7, 447.0)"> </text><text xml:space="preserve" font-family="Helvetica-Light,Helvetica" font-size="52.0" fill="#FEFFFF" transform="matrix(1.00, 0.00, -0.00, -1.00, 709.1, 447.0)"> </text><g><clipPath id="clip0x600001eb63e0"><path d="M 419.1 440.8 L 694.7 440.8 L 694.7 445.4 L 419.1 445.4 Z M 419.1 440.8 "></path></clipPath><g clip-path="url(#clip0x600001eb63e0)"><path d="M 287.1 388.9 L 561.7 388.9 " fill="none" stroke="#FEFFFF" stroke-width="2.60" transform="matrix(1.00, 0.00, 0.00, -1.00, 133.0, 832.0)"></path></g></g><text xml:space="preserve" font-family="Helvetica-Light,Helvetica" font-size="39.0" fill="#FEFFFF" transform="matrix(1.00, 0.00, -0.00, -1.00, 137.0, 330.5)">•</text><text xml:space="preserve" font-family="Helvetica-Light,Helvetica" font-size="52.0" fill="#FEFFFF" transform="matrix(1.00, 0.00, -0.00, -1.00, 187.0, 326.0)">s</text><text xml:space="preserve" font-family="Helvetica-Light,Helvetica" font-size="52.0" fill="#FEFFFF" transform="matrix(1.00, 0.00, -0.00, -1.00, 213.0, 326.0)">q</text><text xml:space="preserve" font-family="Helvetica-Light,Helvetica" font-size="52.0" fill="#FEFFFF" transform="matrix(1.00, 0.00, -0.00, -1.00, 244.8, 326.0)">u</text><text xml:space="preserve" font-family="Helvetica-Light,Helvetica" font-size="52.0" fill="#FEFFFF" transform="matrix(1.00, 0.00, -0.00, -1.00, 273.7, 326.0)">i</text><text xml:space="preserve" font-family="Helvetica-Light,Helvetica" font-size="52.0" fill="#FEFFFF" transform="matrix(1.00, 0.00, -0.00, -1.00, 285.2, 326.0)">d</text><text xml:space="preserve" font-family="Helvetica-Light,Helvetica" font-size="52.0" fill="#FEFFFF" transform="matrix(1.00, 0.00, -0.00, -1.00, 317.0, 326.0)"> </text><text xml:space="preserve" font-family="Helvetica-Light,Helvetica" font-size="52.0" fill="#FEFFFF" transform="matrix(1.00, 0.00, -0.00, -1.00, 331.5, 326.0)">-</text><text xml:space="preserve" font-family="Helvetica-Light,Helvetica" font-size="52.0" fill="#FEFFFF" transform="matrix(1.00, 0.00, -0.00, -1.00, 348.8, 326.0)"> </text><text xml:space="preserve" font-family="Helvetica-Light,Helvetica" font-size="52.0" fill="#FEFFFF" transform="matrix(1.00, 0.00, -0.00, -1.00, 363.2, 326.0)">s</text><text xml:space="preserve" font-family="Helvetica-Light,Helvetica" font-size="52.0" fill="#FEFFFF" transform="matrix(1.00, 0.00, -0.00, -1.00, 389.2, 326.0)">q</text><text xml:space="preserve" font-family="Helvetica-Light,Helvetica" font-size="52.0" fill="#FEFFFF" transform="matrix(1.00, 0.00, -0.00, -1.00, 421.0, 326.0)">u</text><text xml:space="preserve" font-family="Helvetica-Light,Helvetica" font-size="52.0" fill="#FEFFFF" transform="matrix(1.00, 0.00, -0.00, -1.00, 449.9, 326.0)">i</text><text xml:space="preserve" font-family="Helvetica-Light,Helvetica" font-size="52.0" fill="#FEFFFF" transform="matrix(1.00, 0.00, -0.00, -1.00, 461.5, 326.0)">d</text><text xml:space="preserve" font-family="Helvetica-Light,Helvetica" font-size="52.0" fill="#FEFFFF" transform="matrix(1.00, 0.00, -0.00, -1.00, 493.2, 326.0)">-</text><text xml:space="preserve" font-family="Helvetica-Light,Helvetica" font-size="52.0" fill="#FEFFFF" transform="matrix(1.00, 0.00, -0.00, -1.00, 510.5, 326.0)">c</text><text xml:space="preserve" font-family="Helvetica-Light,Helvetica" font-size="52.0" fill="#FEFFFF" transform="matrix(1.00, 0.00, -0.00, -1.00, 539.5, 326.0)">a</text><text xml:space="preserve" font-family="Helvetica-Light,Helvetica" font-size="52.0" fill="#FEFFFF" transform="matrix(1.00, 0.00, -0.00, -1.00, 568.4, 326.0)">c</text><text xml:space="preserve" font-family="Helvetica-Light,Helvetica" font-size="52.0" fill="#FEFFFF" transform="matrix(1.00, 0.00, -0.00, -1.00, 597.3, 326.0)">h</text><text xml:space="preserve" font-family="Helvetica-Light,Helvetica" font-size="52.0" fill="#FEFFFF" transform="matrix(1.00, 0.00, -0.00, -1.00, 626.2, 326.0)">e</text><text xml:space="preserve" font-family="Helvetica-Light,Helvetica" font-size="52.0" fill="#FEFFFF" transform="matrix(1.00, 0.00, -0.00, -1.00, 655.1, 326.0)">.</text><text xml:space="preserve" font-family="Helvetica-Light,Helvetica" font-size="52.0" fill="#FEFFFF" transform="matrix(1.00, 0.00, -0.00, -1.00, 669.6, 326.0)">o</text><text xml:space="preserve" font-family="Helvetica-Light,Helvetica" font-size="52.0" fill="#FEFFFF" transform="matrix(1.00, 0.00, -0.00, -1.00, 698.5, 326.0)">r</text><text xml:space="preserve" font-family="Helvetica-Light,Helvetica" font-size="52.0" fill="#FEFFFF" transform="matrix(1.00, 0.00, -0.00, -1.00, 715.8, 326.0)">g</text><text xml:space="preserve" font-family="Helvetica-Light,Helvetica" font-size="52.0" fill="#FEFFFF" transform="matrix(1.00, 0.00, -0.00, -1.00, 747.6, 326.0)"> </text><text xml:space="preserve" font-family="Helvetica-Light,Helvetica" font-size="52.0" fill="#FEFFFF" transform="matrix(1.00, 0.00, -0.00, -1.00, 762.0, 326.0)"> </text><g><clipPath id="clip0x600001eb7040"><path d="M 362.2 319.8 L 747.6 319.8 L 747.6 324.4 L 362.2 324.4 Z M 362.2 319.8 "></path></clipPath><g clip-path="url(#clip0x600001eb7040)"><path d="M 230.2 509.9 L 614.6 509.9 " fill="none" stroke="#FEFFFF" stroke-width="2.60" transform="matrix(1.00, 0.00, 0.00, -1.00, 133.0, 832.0)"></path></g></g><text xml:space="preserve" font-family="Helvetica-Light,Helvetica" font-size="39.0" fill="#FEFFFF" transform="matrix(1.00, 0.00, -0.00, -1.00, 137.0, 209.5)">•</text><text xml:space="preserve" font-family="Helvetica-Light,Helvetica" font-size="52.0" fill="#FEFFFF" transform="matrix(1.00, 0.00, -0.00, -1.00, 187.0, 205.0)">P</text><text xml:space="preserve" font-family="Helvetica-Light,Helvetica" font-size="52.0" fill="#FEFFFF" transform="matrix(1.00, 0.00, -0.00, -1.00, 218.8, 205.0)">S</text><text xml:space="preserve" font-family="Helvetica-Light,Helvetica" font-size="52.0" fill="#FEFFFF" transform="matrix(1.00, 0.00, -0.00, -1.00, 250.5, 205.0)">:</text><text xml:space="preserve" font-family="Helvetica-Light,Helvetica" font-size="52.0" fill="#FEFFFF" transform="matrix(1.00, 0.00, -0.00, -1.00, 265.0, 205.0)"> </text><text xml:space="preserve" font-family="Helvetica-Light,Helvetica" font-size="52.0" fill="#FEFFFF" transform="matrix(1.00, 0.00, -0.00, -1.00, 279.5, 205.0)">M</text><text xml:space="preserve" font-family="Helvetica-Light,Helvetica" font-size="52.0" fill="#FEFFFF" transform="matrix(1.00, 0.00, -0.00, -1.00, 322.8, 205.0)">o</text><text xml:space="preserve" font-family="Helvetica-Light,Helvetica" font-size="52.0" fill="#FEFFFF" transform="matrix(1.00, 0.00, -0.00, -1.00, 351.7, 205.0)">s</text><text xml:space="preserve" font-family="Helvetica-Light,Helvetica" font-size="52.0" fill="#FEFFFF" transform="matrix(1.00, 0.00, -0.00, -1.00, 377.7, 205.0)">t</text><text xml:space="preserve" font-family="Helvetica-Light,Helvetica" font-size="52.0" fill="#FEFFFF" transform="matrix(1.00, 0.00, -0.00, -1.00, 392.1, 205.0)"> </text><text xml:space="preserve" font-family="Helvetica-Light,Helvetica" font-size="52.0" fill="#FEFFFF" transform="matrix(1.00, 0.00, -0.00, -1.00, 406.6, 205.0)">F</text><text xml:space="preserve" font-family="Helvetica-Light,Helvetica" font-size="52.0" fill="#FEFFFF" transform="matrix(1.00, 0.00, -0.00, -1.00, 435.5, 205.0)">r</text><text xml:space="preserve" font-family="Helvetica-Light,Helvetica" font-size="52.0" fill="#FEFFFF" transform="matrix(1.00, 0.00, -0.00, -1.00, 452.8, 205.0)">a</text><text xml:space="preserve" font-family="Helvetica-Light,Helvetica" font-size="52.0" fill="#FEFFFF" transform="matrix(1.00, 0.00, -0.00, -1.00, 481.7, 205.0)">m</text><text xml:space="preserve" font-family="Helvetica-Light,Helvetica" font-size="52.0" fill="#FEFFFF" transform="matrix(1.00, 0.00, -0.00, -1.00, 525.1, 205.0)">e</text><text xml:space="preserve" font-family="Helvetica-Light,Helvetica" font-size="52.0" fill="#FEFFFF" transform="matrix(1.00, 0.00, -0.00, -1.00, 554.0, 205.0)">w</text><text xml:space="preserve" font-family="Helvetica-Light,Helvetica" font-size="52.0" fill="#FEFFFF" transform="matrix(1.00, 0.00, -0.00, -1.00, 591.5, 205.0)">o</text><text xml:space="preserve" font-family="Helvetica-Light,Helvetica" font-size="52.0" fill="#FEFFFF" transform="matrix(1.00, 0.00, -0.00, -1.00, 620.4, 205.0)">r</text><text xml:space="preserve" font-family="Helvetica-Light,Helvetica" font-size="52.0" fill="#FEFFFF" transform="matrix(1.00, 0.00, -0.00, -1.00, 637.7, 205.0)">k</text><text xml:space="preserve" font-family="Helvetica-Light,Helvetica" font-size="52.0" fill="#FEFFFF" transform="matrix(1.00, 0.00, -0.00, -1.00, 663.7, 205.0)">s</text><text xml:space="preserve" font-family="Helvetica-Light,Helvetica" font-size="52.0" fill="#FEFFFF" transform="matrix(1.00, 0.00, -0.00, -1.00, 689.7, 205.0)"> </text><text xml:space="preserve" font-family="Helvetica-Light,Helvetica" font-size="52.0" fill="#FEFFFF" transform="matrix(1.00, 0.00, -0.00, -1.00, 704.2, 205.0)">h</text><text xml:space="preserve" font-family="Helvetica-Light,Helvetica" font-size="52.0" fill="#FEFFFF" transform="matrix(1.00, 0.00, -0.00, -1.00, 733.1, 205.0)">a</text><text xml:space="preserve" font-family="Helvetica-Light,Helvetica" font-size="52.0" fill="#FEFFFF" transform="matrix(1.00, 0.00, -0.00, -1.00, 762.0, 205.0)">s</text><text xml:space="preserve" font-family="Helvetica-Light,Helvetica" font-size="52.0" fill="#FEFFFF" transform="matrix(1.00, 0.00, -0.00, -1.00, 788.0, 205.0)"> </text><text xml:space="preserve" font-family="Helvetica-Light,Helvetica" font-size="52.0" fill="#FEFFFF" transform="matrix(1.00, 0.00, -0.00, -1.00, 802.5, 205.0)">r</text><text xml:space="preserve" font-family="Helvetica-Light,Helvetica" font-size="52.0" fill="#FEFFFF" transform="matrix(1.00, 0.00, -0.00, -1.00, 818.9, 205.0)">e</text><text xml:space="preserve" font-family="Helvetica-Light,Helvetica" font-size="52.0" fill="#FEFFFF" transform="matrix(1.00, 0.00, -0.00, -1.00, 847.8, 205.0)">v</text><text xml:space="preserve" font-family="Helvetica-Light,Helvetica" font-size="52.0" fill="#FEFFFF" transform="matrix(1.00, 0.00, -0.00, -1.00, 873.8, 205.0)">e</text><text xml:space="preserve" font-family="Helvetica-Light,Helvetica" font-size="52.0" fill="#FEFFFF" transform="matrix(1.00, 0.00, -0.00, -1.00, 902.7, 205.0)">r</text><text xml:space="preserve" font-family="Helvetica-Light,Helvetica" font-size="52.0" fill="#FEFFFF" transform="matrix(1.00, 0.00, -0.00, -1.00, 920.0, 205.0)">s</text><text xml:space="preserve" font-family="Helvetica-Light,Helvetica" font-size="52.0" fill="#FEFFFF" transform="matrix(1.00, 0.00, -0.00, -1.00, 946.0, 205.0)">e</text><text xml:space="preserve" font-family="Helvetica-Light,Helvetica" font-size="52.0" fill="#FEFFFF" transform="matrix(1.00, 0.00, -0.00, -1.00, 974.9, 205.0)"> </text><text xml:space="preserve" font-family="Helvetica-Light,Helvetica" font-size="52.0" fill="#FEFFFF" transform="matrix(1.00, 0.00, -0.00, -1.00, 989.4, 205.0)">p</text><text xml:space="preserve" font-family="Helvetica-Light,Helvetica" font-size="52.0" fill="#FEFFFF" transform="matrix(1.00, 0.00, -0.00, -1.00, 1021.1, 205.0)">r</text><text xml:space="preserve" font-family="Helvetica-Light,Helvetica" font-size="52.0" fill="#FEFFFF" transform="matrix(1.00, 0.00, -0.00, -1.00, 1037.5, 205.0)">o</text><text xml:space="preserve" font-family="Helvetica-Light,Helvetica" font-size="52.0" fill="#FEFFFF" transform="matrix(1.00, 0.00, -0.00, -1.00, 1066.4, 205.0)">x</text><text xml:space="preserve" font-family="Helvetica-Light,Helvetica" font-size="52.0" fill="#FEFFFF" transform="matrix(1.00, 0.00, -0.00, -1.00, 1092.4, 205.0)">y</text><text xml:space="preserve" font-family="Helvetica-Light,Helvetica" font-size="52.0" fill="#FEFFFF" transform="matrix(1.00, 0.00, -0.00, -1.00, 1118.4, 205.0)"> </text><text xml:space="preserve" font-family="Helvetica-Light,Helvetica" font-size="52.0" fill="#FEFFFF" transform="matrix(1.00, 0.00, -0.00, -1.00, 1132.9, 205.0)">b</text><text xml:space="preserve" font-family="Helvetica-Light,Helvetica" font-size="52.0" fill="#FEFFFF" transform="matrix(1.00, 0.00, -0.00, -1.00, 1164.7, 205.0)">u</text><text xml:space="preserve" font-family="Helvetica-Light,Helvetica" font-size="52.0" fill="#FEFFFF" transform="matrix(1.00, 0.00, -0.00, -1.00, 1193.6, 205.0)">i</text><text xml:space="preserve" font-family="Helvetica-Light,Helvetica" font-size="52.0" fill="#FEFFFF" transform="matrix(1.00, 0.00, -0.00, -1.00, 1205.1, 205.0)">l</text><text xml:space="preserve" font-family="Helvetica-Light,Helvetica" font-size="52.0" fill="#FEFFFF" transform="matrix(1.00, 0.00, -0.00, -1.00, 1216.7, 205.0)">t</text><text xml:space="preserve" font-family="Helvetica-Light,Helvetica" font-size="52.0" fill="#FEFFFF" transform="matrix(1.00, 0.00, -0.00, -1.00, 1231.1, 205.0)"> </text><text xml:space="preserve" font-family="Helvetica-Light,Helvetica" font-size="52.0" fill="#FEFFFF" transform="matrix(1.00, 0.00, -0.00, -1.00, 1245.6, 205.0)">i</text><text xml:space="preserve" font-family="Helvetica-Light,Helvetica" font-size="52.0" fill="#FEFFFF" transform="matrix(1.00, 0.00, -0.00, -1.00, 1257.1, 205.0)">n</text><text xml:space="preserve" font-family="Helvetica-Light,Helvetica" font-size="52.0" fill="#FEFFFF" transform="matrix(1.00, 0.00, -0.00, -1.00, 1286.0, 205.0)">!</text><text xml:space="preserve" font-family="Helvetica-Light,Helvetica" font-size="52.0" fill="#FEFFFF" transform="matrix(1.00, 0.00, -0.00, -1.00, 1303.3, 205.0)">!</text></g></svg>