<?xml version="1.0" encoding="UTF-8" standalone="no"?><svg xmlns="http://www.w3.org/2000/svg" xmlns:xlink="http://www.w3.org/1999/xlink" clip-rule="evenodd" stroke-miterlimit="10" viewBox="0 0 1920 1080"><desc>SVG generated by Keynote</desc><defs></defs><g transform="matrix(1.00, 0.00, -0.00, -1.00, 0.0, 1080.0)"><path d="M 0.0 1080.0 L 1920.0 1080.0 L 1920.0 0.0 L 0.0 0.0 Z M 0.0 1080.0 " fill="#000000"></path><text xml:space="preserve" font-family="Helvetica-Light,Helvetica" font-size="90.0" fill="#FEFFFF" transform="matrix(1.00, 0.00, -0.00, -1.00, 335.7, 928.7)">W</text><text xml:space="preserve" font-family="Helvetica-Light,Helvetica" font-size="90.0" fill="#FEFFFF" transform="matrix(1.00, 0.00, -0.00, -1.00, 415.7, 928.7)">h</text><text xml:space="preserve" font-family="Helvetica-Light,Helvetica" font-size="90.0" fill="#FEFFFF" transform="matrix(1.00, 0.00, -0.00, -1.00, 465.7, 928.7)">y</text><text xml:space="preserve" font-family="Helvetica-Light,Helvetica" font-size="90.0" fill="#FEFFFF" transform="matrix(1.00, 0.00, -0.00, -1.00, 510.7, 928.7)"> </text><text xml:space="preserve" font-family="Helvetica-Light,Helvetica" font-size="90.0" fill="#FEFFFF" transform="matrix(1.00, 0.00, -0.00, -1.00, 535.7, 928.7)">A</text><text xml:space="preserve" font-family="Helvetica-Light,Helvetica" font-size="90.0" fill="#FEFFFF" transform="matrix(1.00, 0.00, -0.00, -1.00, 595.8, 928.7)">f</text><text xml:space="preserve" font-family="Helvetica-Light,Helvetica" font-size="90.0" fill="#FEFFFF" transform="matrix(1.00, 0.00, -0.00, -1.00, 620.8, 928.7)">r</text><text xml:space="preserve" font-family="Helvetica-Light,Helvetica" font-size="90.0" fill="#FEFFFF" transform="matrix(1.00, 0.00, -0.00, -1.00, 650.8, 928.7)">i</text><text xml:space="preserve" font-family="Helvetica-Light,Helvetica" font-size="90.0" fill="#FEFFFF" transform="matrix(1.00, 0.00, -0.00, -1.00, 670.7, 928.7)">h</text><text xml:space="preserve" font-family="Helvetica-Light,Helvetica" font-size="90.0" fill="#FEFFFF" transform="matrix(1.00, 0.00, -0.00, -1.00, 720.8, 928.7)">o</text><text xml:space="preserve" font-family="Helvetica-Light,Helvetica" font-size="90.0" fill="#FEFFFF" transform="matrix(1.00, 0.00, -0.00, -1.00, 770.8, 928.7)">s</text><text xml:space="preserve" font-family="Helvetica-Light,Helvetica" font-size="90.0" fill="#FEFFFF" transform="matrix(1.00, 0.00, -0.00, -1.00, 815.8, 928.7)">t</text><text xml:space="preserve" font-family="Helvetica-Light,Helvetica" font-size="90.0" fill="#FEFFFF" transform="matrix(1.00, 0.00, -0.00, -1.00, 840.8, 928.7)"> </text><text xml:space="preserve" font-family="Helvetica-Light,Helvetica" font-size="90.0" fill="#FEFFFF" transform="matrix(1.00, 0.00, -0.00, -1.00, 865.9, 928.7)">c</text><text xml:space="preserve" font-family="Helvetica-Light,Helvetica" font-size="90.0" fill="#FEFFFF" transform="matrix(1.00, 0.00, -0.00, -1.00, 915.9, 928.7)">a</text><text xml:space="preserve" font-family="Helvetica-Light,Helvetica" font-size="90.0" fill="#FEFFFF" transform="matrix(1.00, 0.00, -0.00, -1.00, 965.9, 928.7)">r</text><text xml:space="preserve" font-family="Helvetica-Light,Helvetica" font-size="90.0" fill="#FEFFFF" transform="matrix(1.00, 0.00, -0.00, -1.00, 994.3, 928.7)">e</text><text xml:space="preserve" font-family="Helvetica-Light,Helvetica" font-size="90.0" fill="#FEFFFF" transform="matrix(1.00, 0.00, -0.00, -1.00, 1044.3, 928.7)">d</text><text xml:space="preserve" font-family="Helvetica-Light,Helvetica" font-size="90.0" fill="#FEFFFF" transform="matrix(1.00, 0.00, -0.00, -1.00, 1099.3, 928.7)"> </text><text xml:space="preserve" font-family="Helvetica-Light,Helvetica" font-size="90.0" fill="#FEFFFF" transform="matrix(1.00, 0.00, -0.00, -1.00, 1124.3, 928.7)">(</text><text xml:space="preserve" font-family="Helvetica-Light,Helvetica" font-size="90.0" fill="#FEFFFF" transform="matrix(1.00, 0.00, -0.00, -1.00, 1154.3, 928.7)">s</text><text xml:space="preserve" font-family="Helvetica-Light,Helvetica" font-size="90.0" fill="#FEFFFF" transform="matrix(1.00, 0.00, -0.00, -1.00, 1199.3, 928.7)">u</text><text xml:space="preserve" font-family="Helvetica-Light,Helvetica" font-size="90.0" fill="#FEFFFF" transform="matrix(1.00, 0.00, -0.00, -1.00, 1249.3, 928.7)">d</text><text xml:space="preserve" font-family="Helvetica-Light,Helvetica" font-size="90.0" fill="#FEFFFF" transform="matrix(1.00, 0.00, -0.00, -1.00, 1304.3, 928.7)">d</text><text xml:space="preserve" font-family="Helvetica-Light,Helvetica" font-size="90.0" fill="#FEFFFF" transform="matrix(1.00, 0.00, -0.00, -1.00, 1359.3, 928.7)">e</text><text xml:space="preserve" font-family="Helvetica-Light,Helvetica" font-size="90.0" fill="#FEFFFF" transform="matrix(1.00, 0.00, -0.00, -1.00, 1409.4, 928.7)">n</text><text xml:space="preserve" font-family="Helvetica-Light,Helvetica" font-size="90.0" fill="#FEFFFF" transform="matrix(1.00, 0.00, -0.00, -1.00, 1459.4, 928.7)">l</text><text xml:space="preserve" font-family="Helvetica-Light,Helvetica" font-size="90.0" fill="#FEFFFF" transform="matrix(1.00, 0.00, -0.00, -1.00, 1479.4, 928.7)">y</text><text xml:space="preserve" font-family="Helvetica-Light,Helvetica" font-size="90.0" fill="#FEFFFF" transform="matrix(1.00, 0.00, -0.00, -1.00, 1524.4, 928.7)">!</text><text xml:space="preserve" font-family="Helvetica-Light,Helvetica" font-size="90.0" fill="#FEFFFF" transform="matrix(1.00, 0.00, -0.00, -1.00, 1554.4, 928.7)">)</text><image xlink:href="E109760F3F52FC0DAA65E0A6E15AB3E0.png" width="306.00" height="342.00" transform="matrix(1.00, 0.00, -0.00, -1.00, 55.2, 773.9)"></image><text xml:space="preserve" font-family="Helvetica-Light,Helvetica" font-size="50.0" fill="#FEFFFF" transform="matrix(1.00, 0.00, -0.00, -1.00, 80.8, 831.5)">F</text><text xml:space="preserve" font-family="Helvetica-Light,Helvetica" font-size="50.0" fill="#FEFFFF" transform="matrix(1.00, 0.00, -0.00, -1.00, 108.6, 831.5)">r</text><text xml:space="preserve" font-family="Helvetica-Light,Helvetica" font-size="50.0" fill="#FEFFFF" transform="matrix(1.00, 0.00, -0.00, -1.00, 124.4, 831.5)">o</text><text xml:space="preserve" font-family="Helvetica-Light,Helvetica" font-size="50.0" fill="#FEFFFF" transform="matrix(1.00, 0.00, -0.00, -1.00, 152.2, 831.5)">m</text><text xml:space="preserve" font-family="Helvetica-Light,Helvetica" font-size="50.0" fill="#FEFFFF" transform="matrix(1.00, 0.00, -0.00, -1.00, 193.8, 831.5)"> </text><text xml:space="preserve" font-family="Helvetica-Light,Helvetica" font-size="50.0" fill="#FEFFFF" transform="matrix(1.00, 0.00, -0.00, -1.00, 207.7, 831.5)">t</text><text xml:space="preserve" font-family="Helvetica-Light,Helvetica" font-size="50.0" fill="#FEFFFF" transform="matrix(1.00, 0.00, -0.00, -1.00, 221.6, 831.5)">h</text><text xml:space="preserve" font-family="Helvetica-Light,Helvetica" font-size="50.0" fill="#FEFFFF" transform="matrix(1.00, 0.00, -0.00, -1.00, 249.4, 831.5)">i</text><text xml:space="preserve" font-family="Helvetica-Light,Helvetica" font-size="50.0" fill="#FEFFFF" transform="matrix(1.00, 0.00, -0.00, -1.00, 260.5, 831.5)">s</text><text xml:space="preserve" font-family="Helvetica-Light,Helvetica" font-size="50.0" fill="#FEFFFF" transform="matrix(1.00, 0.00, -0.00, -1.00, 285.5, 831.5)">…</text><image xlink:href="AACBC14547661C0F682D08FDC6E21F11.png" width="396.00" height="424.00" transform="matrix(0.81, 0.00, -0.00, -0.81, 499.9, 773.9)"></image><text xml:space="preserve" font-family="Helvetica-Light,Helvetica" font-size="50.0" fill="#FEFFFF" transform="matrix(1.00, 0.00, -0.00, -1.00, 619.9, 831.5)">…</text><text xml:space="preserve" font-family="Helvetica-Light,Helvetica" font-size="50.0" fill="#FEFFFF" transform="matrix(1.00, 0.00, -0.00, -1.00, 669.9, 831.5)">t</text><text xml:space="preserve" font-family="Helvetica-Light,Helvetica" font-size="50.0" fill="#FEFFFF" transform="matrix(1.00, 0.00, -0.00, -1.00, 683.8, 831.5)">o</text><text xml:space="preserve" font-family="Helvetica-Light,Helvetica" font-size="50.0" fill="#FEFFFF" transform="matrix(1.00, 0.00, -0.00, -1.00, 711.6, 831.5)"> </text><text xml:space="preserve" font-family="Helvetica-Light,Helvetica" font-size="50.0" fill="#FEFFFF" transform="matrix(1.00, 0.00, -0.00, -1.00, 725.5, 831.5)">t</text><text xml:space="preserve" font-family="Helvetica-Light,Helvetica" font-size="50.0" fill="#FEFFFF" transform="matrix(1.00, 0.00, -0.00, -1.00, 739.4, 831.5)">h</text><text xml:space="preserve" font-family="Helvetica-Light,Helvetica" font-size="50.0" fill="#FEFFFF" transform="matrix(1.00, 0.00, -0.00, -1.00, 767.2, 831.5)">i</text><text xml:space="preserve" font-family="Helvetica-Light,Helvetica" font-size="50.0" fill="#FEFFFF" transform="matrix(1.00, 0.00, -0.00, -1.00, 778.3, 831.5)">s</text><text xml:space="preserve" font-family="Helvetica-Light,Helvetica" font-size="50.0" fill="#FEFFFF" transform="matrix(1.00, 0.00, -0.00, -1.00, 803.3, 831.5)">!</text><image xlink:href="E0AF27CFDD053918CF47A638C88BC36E.png" width="1024.00" height="142.00" transform="matrix(1.70, 0.00, -0.00, -1.70, 91.5, 304.0)"></image><image xlink:href="958E46B8384EF146541E33E6B0CFAF5A.png" width="275.00" height="250.00" transform="matrix(1.94, 0.00, -0.00, -1.94, 1295.1, 845.3)"></image><image xlink:href="0E105713636307650CF2011124F4BFF2.png" width="529.00" height="482.00" transform="matrix(1.00, 0.00, -0.00, 1.00, 1298.1, 362.5)"></image></g></svg>