<?xml version="1.0" encoding="UTF-8" standalone="no"?><svg xmlns="http://www.w3.org/2000/svg" xmlns:xlink="http://www.w3.org/1999/xlink" clip-rule="evenodd" stroke-miterlimit="10" viewBox="0 0 1920 1080"><desc>SVG generated by Keynote</desc><defs><pattern id="patternP1" patternUnits="userSpaceOnUse" width="256" height="256" viewBox="0 0 256 256"><image xlink:href="../../4B02DB81-25DD-465D-9099-AEC6BE35581B/assets/41E12EFF7BBBDE6590338AACEEEADB02.png" width="256.00" height="256.00"></image></pattern></defs><g transform="matrix(1.00, 0.00, -0.00, -1.00, 0.0, 1080.0)"><path d="M 0.0 1080.0 L 1920.0 1080.0 L 1920.0 0.0 L 0.0 0.0 Z M 0.0 1080.0 " fill="#000000"></path><text xml:space="preserve" font-family="Helvetica-Light,Helvetica" font-size="112.0" fill="#FEFFFF" transform="matrix(1.00, 0.00, -0.00, -1.00, 219.4, 920.8)">M</text><text xml:space="preserve" font-family="Helvetica-Light,Helvetica" font-size="112.0" fill="#FEFFFF" transform="matrix(1.00, 0.00, -0.00, -1.00, 312.7, 920.8)">o</text><text xml:space="preserve" font-family="Helvetica-Light,Helvetica" font-size="112.0" fill="#FEFFFF" transform="matrix(1.00, 0.00, -0.00, -1.00, 375.0, 920.8)">n</text><text xml:space="preserve" font-family="Helvetica-Light,Helvetica" font-size="112.0" fill="#FEFFFF" transform="matrix(1.00, 0.00, -0.00, -1.00, 437.2, 920.8)">i</text><text xml:space="preserve" font-family="Helvetica-Light,Helvetica" font-size="112.0" fill="#FEFFFF" transform="matrix(1.00, 0.00, -0.00, -1.00, 462.1, 920.8)">t</text><text xml:space="preserve" font-family="Helvetica-Light,Helvetica" font-size="112.0" fill="#FEFFFF" transform="matrix(1.00, 0.00, -0.00, -1.00, 493.2, 920.8)">o</text><text xml:space="preserve" font-family="Helvetica-Light,Helvetica" font-size="112.0" fill="#FEFFFF" transform="matrix(1.00, 0.00, -0.00, -1.00, 555.5, 920.8)">r</text><text xml:space="preserve" font-family="Helvetica-Light,Helvetica" font-size="112.0" fill="#FEFFFF" transform="matrix(1.00, 0.00, -0.00, -1.00, 592.8, 920.8)">i</text><text xml:space="preserve" font-family="Helvetica-Light,Helvetica" font-size="112.0" fill="#FEFFFF" transform="matrix(1.00, 0.00, -0.00, -1.00, 617.7, 920.8)">n</text><text xml:space="preserve" font-family="Helvetica-Light,Helvetica" font-size="112.0" fill="#FEFFFF" transform="matrix(1.00, 0.00, -0.00, -1.00, 679.9, 920.8)">g</text><text xml:space="preserve" font-family="Helvetica-Light,Helvetica" font-size="112.0" fill="#FEFFFF" transform="matrix(1.00, 0.00, -0.00, -1.00, 748.4, 920.8)">…</text><text xml:space="preserve" font-family="Helvetica-Light,Helvetica" font-size="112.0" fill="#FEFFFF" transform="matrix(1.00, 0.00, -0.00, -1.00, 860.4, 920.8)"> </text><text xml:space="preserve" font-family="Helvetica-Light,Helvetica" font-size="112.0" fill="#FEFFFF" transform="matrix(1.00, 0.00, -0.00, -1.00, 891.5, 920.8)">l</text><text xml:space="preserve" font-family="Helvetica-Light,Helvetica" font-size="112.0" fill="#FEFFFF" transform="matrix(1.00, 0.00, -0.00, -1.00, 916.4, 920.8)">o</text><text xml:space="preserve" font-family="Helvetica-Light,Helvetica" font-size="112.0" fill="#FEFFFF" transform="matrix(1.00, 0.00, -0.00, -1.00, 978.6, 920.8)">o</text><text xml:space="preserve" font-family="Helvetica-Light,Helvetica" font-size="112.0" fill="#FEFFFF" transform="matrix(1.00, 0.00, -0.00, -1.00, 1040.9, 920.8)">k</text><text xml:space="preserve" font-family="Helvetica-Light,Helvetica" font-size="112.0" fill="#FEFFFF" transform="matrix(1.00, 0.00, -0.00, -1.00, 1096.9, 920.8)">i</text><text xml:space="preserve" font-family="Helvetica-Light,Helvetica" font-size="112.0" fill="#FEFFFF" transform="matrix(1.00, 0.00, -0.00, -1.00, 1121.8, 920.8)">n</text><text xml:space="preserve" font-family="Helvetica-Light,Helvetica" font-size="112.0" fill="#FEFFFF" transform="matrix(1.00, 0.00, -0.00, -1.00, 1184.1, 920.8)">g</text><text xml:space="preserve" font-family="Helvetica-Light,Helvetica" font-size="112.0" fill="#FEFFFF" transform="matrix(1.00, 0.00, -0.00, -1.00, 1252.5, 920.8)"> </text><text xml:space="preserve" font-family="Helvetica-Light,Helvetica" font-size="112.0" fill="#FEFFFF" transform="matrix(1.00, 0.00, -0.00, -1.00, 1283.6, 920.8)">c</text><text xml:space="preserve" font-family="Helvetica-Light,Helvetica" font-size="112.0" fill="#FEFFFF" transform="matrix(1.00, 0.00, -0.00, -1.00, 1345.9, 920.8)">l</text><text xml:space="preserve" font-family="Helvetica-Light,Helvetica" font-size="112.0" fill="#FEFFFF" transform="matrix(1.00, 0.00, -0.00, -1.00, 1370.8, 920.8)">o</text><text xml:space="preserve" font-family="Helvetica-Light,Helvetica" font-size="112.0" fill="#FEFFFF" transform="matrix(1.00, 0.00, -0.00, -1.00, 1433.0, 920.8)">s</text><text xml:space="preserve" font-family="Helvetica-Light,Helvetica" font-size="112.0" fill="#FEFFFF" transform="matrix(1.00, 0.00, -0.00, -1.00, 1489.0, 920.8)">e</text><text xml:space="preserve" font-family="Helvetica-Light,Helvetica" font-size="112.0" fill="#FEFFFF" transform="matrix(1.00, 0.00, -0.00, -1.00, 1551.3, 920.8)">r</text><text xml:space="preserve" font-family="Helvetica-Light,Helvetica" font-size="112.0" fill="#FEFFFF" transform="matrix(1.00, 0.00, -0.00, -1.00, 1588.6, 920.8)">…</text><text xml:space="preserve" font-family="Helvetica-Light,Helvetica" font-size="50.0" fill="#FEFFFF" transform="matrix(1.00, 0.00, -0.00, -1.00, 603.9, 109.2)">…</text><text xml:space="preserve" font-family="Helvetica-Light,Helvetica" font-size="50.0" fill="#FEFFFF" transform="matrix(1.00, 0.00, -0.00, -1.00, 653.9, 109.2)"> </text><text xml:space="preserve" font-family="Helvetica-Light,Helvetica" font-size="50.0" fill="#FEFFFF" transform="matrix(1.00, 0.00, -0.00, -1.00, 667.8, 109.2)">h</text><text xml:space="preserve" font-family="Helvetica-Light,Helvetica" font-size="50.0" fill="#FEFFFF" transform="matrix(1.00, 0.00, -0.00, -1.00, 695.6, 109.2)">m</text><text xml:space="preserve" font-family="Helvetica-Light,Helvetica" font-size="50.0" fill="#FEFFFF" transform="matrix(1.00, 0.00, -0.00, -1.00, 737.2, 109.2)">m</text><text xml:space="preserve" font-family="Helvetica-Light,Helvetica" font-size="50.0" fill="#FEFFFF" transform="matrix(1.00, 0.00, -0.00, -1.00, 778.9, 109.2)">m</text><text xml:space="preserve" font-family="Helvetica-Light,Helvetica" font-size="50.0" fill="#FEFFFF" transform="matrix(1.00, 0.00, -0.00, -1.00, 820.5, 109.2)">m</text><text xml:space="preserve" font-family="Helvetica-Light,Helvetica" font-size="50.0" fill="#FEFFFF" transform="matrix(1.00, 0.00, -0.00, -1.00, 862.2, 109.2)">…</text><text xml:space="preserve" font-family="Helvetica-Light,Helvetica" font-size="50.0" fill="#FEFFFF" transform="matrix(1.00, 0.00, -0.00, -1.00, 912.2, 109.2)"> </text><text xml:space="preserve" font-family="Helvetica-Light,Helvetica" font-size="50.0" fill="#FEFFFF" transform="matrix(1.00, 0.00, -0.00, -1.00, 926.1, 109.2)">w</text><text xml:space="preserve" font-family="Helvetica-Light,Helvetica" font-size="50.0" fill="#FEFFFF" transform="matrix(1.00, 0.00, -0.00, -1.00, 962.2, 109.2)">h</text><text xml:space="preserve" font-family="Helvetica-Light,Helvetica" font-size="50.0" fill="#FEFFFF" transform="matrix(1.00, 0.00, -0.00, -1.00, 990.0, 109.2)">a</text><text xml:space="preserve" font-family="Helvetica-Light,Helvetica" font-size="50.0" fill="#FEFFFF" transform="matrix(1.00, 0.00, -0.00, -1.00, 1017.8, 109.2)">t</text><text xml:space="preserve" font-family="Helvetica-Light,Helvetica" font-size="50.0" fill="#FEFFFF" transform="matrix(1.00, 0.00, -0.00, -1.00, 1031.7, 109.2)"> </text><text xml:space="preserve" font-family="Helvetica-Light,Helvetica" font-size="50.0" fill="#FEFFFF" transform="matrix(1.00, 0.00, -0.00, -1.00, 1045.6, 109.2)">s</text><text xml:space="preserve" font-family="Helvetica-Light,Helvetica" font-size="50.0" fill="#FEFFFF" transform="matrix(1.00, 0.00, -0.00, -1.00, 1070.6, 109.2)">t</text><text xml:space="preserve" font-family="Helvetica-Light,Helvetica" font-size="50.0" fill="#FEFFFF" transform="matrix(1.00, 0.00, -0.00, -1.00, 1084.5, 109.2)">a</text><text xml:space="preserve" font-family="Helvetica-Light,Helvetica" font-size="50.0" fill="#FEFFFF" transform="matrix(1.00, 0.00, -0.00, -1.00, 1112.3, 109.2)">r</text><text xml:space="preserve" font-family="Helvetica-Light,Helvetica" font-size="50.0" fill="#FEFFFF" transform="matrix(1.00, 0.00, -0.00, -1.00, 1129.8, 109.2)">t</text><text xml:space="preserve" font-family="Helvetica-Light,Helvetica" font-size="50.0" fill="#FEFFFF" transform="matrix(1.00, 0.00, -0.00, -1.00, 1143.7, 109.2)">e</text><text xml:space="preserve" font-family="Helvetica-Light,Helvetica" font-size="50.0" fill="#FEFFFF" transform="matrix(1.00, 0.00, -0.00, -1.00, 1171.5, 109.2)">d</text><text xml:space="preserve" font-family="Helvetica-Light,Helvetica" font-size="50.0" fill="#FEFFFF" transform="matrix(1.00, 0.00, -0.00, -1.00, 1202.1, 109.2)"> </text><text xml:space="preserve" font-family="Helvetica-Light,Helvetica" font-size="50.0" fill="#FEFFFF" transform="matrix(1.00, 0.00, -0.00, -1.00, 1216.0, 109.2)">a</text><text xml:space="preserve" font-family="Helvetica-Light,Helvetica" font-size="50.0" fill="#FEFFFF" transform="matrix(1.00, 0.00, -0.00, -1.00, 1243.8, 109.2)">r</text><text xml:space="preserve" font-family="Helvetica-Light,Helvetica" font-size="50.0" fill="#FEFFFF" transform="matrix(1.00, 0.00, -0.00, -1.00, 1259.5, 109.2)">o</text><text xml:space="preserve" font-family="Helvetica-Light,Helvetica" font-size="50.0" fill="#FEFFFF" transform="matrix(1.00, 0.00, -0.00, -1.00, 1287.3, 109.2)">u</text><text xml:space="preserve" font-family="Helvetica-Light,Helvetica" font-size="50.0" fill="#FEFFFF" transform="matrix(1.00, 0.00, -0.00, -1.00, 1315.1, 109.2)">n</text><text xml:space="preserve" font-family="Helvetica-Light,Helvetica" font-size="50.0" fill="#FEFFFF" transform="matrix(1.00, 0.00, -0.00, -1.00, 1342.9, 109.2)">d</text><text xml:space="preserve" font-family="Helvetica-Light,Helvetica" font-size="50.0" fill="#FEFFFF" transform="matrix(1.00, 0.00, -0.00, -1.00, 1373.5, 109.2)"> </text><text xml:space="preserve" font-family="Helvetica-Light,Helvetica" font-size="50.0" fill="#FEFFFF" transform="matrix(1.00, 0.00, -0.00, -1.00, 1387.4, 109.2)">1</text><text xml:space="preserve" font-family="Helvetica-Light,Helvetica" font-size="50.0" fill="#FEFFFF" transform="matrix(1.00, 0.00, -0.00, -1.00, 1415.2, 109.2)">8</text><text xml:space="preserve" font-family="Helvetica-Light,Helvetica" font-size="50.0" fill="#FEFFFF" transform="matrix(1.00, 0.00, -0.00, -1.00, 1443.0, 109.2)">:</text><text xml:space="preserve" font-family="Helvetica-Light,Helvetica" font-size="50.0" fill="#FEFFFF" transform="matrix(1.00, 0.00, -0.00, -1.00, 1456.9, 109.2)">0</text><text xml:space="preserve" font-family="Helvetica-Light,Helvetica" font-size="50.0" fill="#FEFFFF" transform="matrix(1.00, 0.00, -0.00, -1.00, 1484.7, 109.2)">8</text><text xml:space="preserve" font-family="Helvetica-Light,Helvetica" font-size="50.0" fill="#FEFFFF" transform="matrix(1.00, 0.00, -0.00, -1.00, 1512.5, 109.2)"> </text><text xml:space="preserve" font-family="Helvetica-Light,Helvetica" font-size="50.0" fill="#FEFFFF" transform="matrix(1.00, 0.00, -0.00, -1.00, 1526.4, 109.2)">o</text><text xml:space="preserve" font-family="Helvetica-Light,Helvetica" font-size="50.0" fill="#FEFFFF" transform="matrix(1.00, 0.00, -0.00, -1.00, 1554.2, 109.2)">n</text><text xml:space="preserve" font-family="Helvetica-Light,Helvetica" font-size="50.0" fill="#FEFFFF" transform="matrix(1.00, 0.00, -0.00, -1.00, 1582.0, 109.2)"> </text><text xml:space="preserve" font-family="Helvetica-Light,Helvetica" font-size="50.0" fill="#FEFFFF" transform="matrix(1.00, 0.00, -0.00, -1.00, 1595.9, 109.2)">t</text><text xml:space="preserve" font-family="Helvetica-Light,Helvetica" font-size="50.0" fill="#FEFFFF" transform="matrix(1.00, 0.00, -0.00, -1.00, 1609.8, 109.2)">h</text><text xml:space="preserve" font-family="Helvetica-Light,Helvetica" font-size="50.0" fill="#FEFFFF" transform="matrix(1.00, 0.00, -0.00, -1.00, 1637.6, 109.2)">e</text><text xml:space="preserve" font-family="Helvetica-Light,Helvetica" font-size="50.0" fill="#FEFFFF" transform="matrix(1.00, 0.00, -0.00, -1.00, 1665.4, 109.2)"> </text><text xml:space="preserve" font-family="Helvetica-Light,Helvetica" font-size="50.0" fill="#FEFFFF" transform="matrix(1.00, 0.00, -0.00, -1.00, 1679.3, 109.2)">2</text><text xml:space="preserve" font-family="Helvetica-Light,Helvetica" font-size="50.0" fill="#FEFFFF" transform="matrix(1.00, 0.00, -0.00, -1.00, 1707.1, 109.2)">5</text><text xml:space="preserve" font-family="Helvetica-Light,Helvetica" font-size="50.0" fill="#FEFFFF" transform="matrix(1.00, 0.00, -0.00, -1.00, 1734.9, 109.2)">t</text><text xml:space="preserve" font-family="Helvetica-Light,Helvetica" font-size="50.0" fill="#FEFFFF" transform="matrix(1.00, 0.00, -0.00, -1.00, 1748.8, 109.2)">h</text><text xml:space="preserve" font-family="Helvetica-Light,Helvetica" font-size="50.0" fill="#FEFFFF" transform="matrix(1.00, 0.00, -0.00, -1.00, 1776.6, 109.2)">?</text><image xlink:href="../../DC7650C4-FFEE-498E-90F6-2EFB60514E75/assets/69EF89159F8ADF34AD9C6793613A07E2.png" width="2134.00" height="850.00" transform="matrix(0.79, 0.00, -0.00, -0.79, 113.4, 877.2)"></image><image xlink:href="../../4B02DB81-25DD-465D-9099-AEC6BE35581B/assets/62E0C004484C66E45DB3989F69C7ECEA.png" width="1488.00" height="100.00" transform="matrix(0.89, 0.45, 0.45, -0.89, 277.9, 242.7)" opacity="0.50"></image><g><clipPath id="clip0x610001ca8100"><path d="M 282.5 243.6 L 1597.5 914.8 L 1637.5 836.4 L 322.5 165.2 Z M 282.5 243.6 "></path></clipPath><g clip-path="url(#clip0x610001ca8100)"><path d="M 562.6 -383.5 L 1941.1 320.1 L 1357.4 1463.5 L -21.1 759.9 Z M 562.6 -383.5 " fill="url(#patternP1)"></path></g></g><path d="M 0.0 0.0 L 1476.4 0.0 L 1476.4 88.0 L 0.0 88.0 Z M 0.0 0.0 " fill="none" stroke="#000000" stroke-width="4.00" transform="matrix(0.89, 0.45, 0.45, -0.89, 282.5, 243.6)"></path><g><clipPath id="clip0x618000eb6680"><path d="M 269.4 247.8 L 1601.8 927.9 L 1650.6 832.2 L 318.2 152.1 Z M 269.4 247.8 "></path></clipPath><g clip-path="url(#clip0x618000eb6680)"><text xml:space="preserve" font-family="Helvetica-Light,Helvetica" font-size="63.0" fill="#FEFFFF" transform="matrix(0.89, 0.45, 0.45, -0.89, 319.0, 186.4)">T</text><text xml:space="preserve" font-family="Helvetica-Light,Helvetica" font-size="63.0" fill="#FEFFFF" transform="matrix(0.89, 0.45, 0.45, -0.89, 350.2, 202.3)">U</text><text xml:space="preserve" font-family="Helvetica-Light,Helvetica" font-size="63.0" fill="#FEFFFF" transform="matrix(0.89, 0.45, 0.45, -0.89, 390.7, 223.0)">R</text><text xml:space="preserve" font-family="Helvetica-Light,Helvetica" font-size="63.0" fill="#FEFFFF" transform="matrix(0.89, 0.45, 0.45, -0.89, 428.1, 242.1)">N</text><text xml:space="preserve" font-family="Helvetica-Light,Helvetica" font-size="63.0" fill="#FEFFFF" transform="matrix(0.89, 0.45, 0.45, -0.89, 468.6, 262.8)">S</text><text xml:space="preserve" font-family="Helvetica-Light,Helvetica" font-size="63.0" fill="#FEFFFF" transform="matrix(0.89, 0.45, 0.45, -0.89, 502.9, 280.3)"> </text><text xml:space="preserve" font-family="Helvetica-Light,Helvetica" font-size="63.0" fill="#FEFFFF" transform="matrix(0.89, 0.45, 0.45, -0.89, 518.5, 288.2)">O</text><text xml:space="preserve" font-family="Helvetica-Light,Helvetica" font-size="63.0" fill="#FEFFFF" transform="matrix(0.89, 0.45, 0.45, -0.89, 562.2, 310.5)">U</text><text xml:space="preserve" font-family="Helvetica-Light,Helvetica" font-size="63.0" fill="#FEFFFF" transform="matrix(0.89, 0.45, 0.45, -0.89, 602.7, 331.2)">T</text><text xml:space="preserve" font-family="Helvetica-Light,Helvetica" font-size="63.0" fill="#FEFFFF" transform="matrix(0.89, 0.45, 0.45, -0.89, 633.9, 347.1)"> </text><text xml:space="preserve" font-family="Helvetica-Light,Helvetica" font-size="63.0" fill="#FEFFFF" transform="matrix(0.89, 0.45, 0.45, -0.89, 649.5, 355.1)">F</text><text xml:space="preserve" font-family="Helvetica-Light,Helvetica" font-size="63.0" fill="#FEFFFF" transform="matrix(0.89, 0.45, 0.45, -0.89, 677.6, 369.4)">A</text><text xml:space="preserve" font-family="Helvetica-Light,Helvetica" font-size="63.0" fill="#FEFFFF" transform="matrix(0.89, 0.45, 0.45, -0.89, 715.0, 388.6)">L</text><text xml:space="preserve" font-family="Helvetica-Light,Helvetica" font-size="63.0" fill="#FEFFFF" transform="matrix(0.89, 0.45, 0.45, -0.89, 746.2, 404.5)">S</text><text xml:space="preserve" font-family="Helvetica-Light,Helvetica" font-size="63.0" fill="#FEFFFF" transform="matrix(0.89, 0.45, 0.45, -0.89, 780.5, 422.0)">E</text><text xml:space="preserve" font-family="Helvetica-Light,Helvetica" font-size="63.0" fill="#FEFFFF" transform="matrix(0.89, 0.45, 0.45, -0.89, 814.8, 439.5)"> </text><text xml:space="preserve" font-family="Helvetica-Light,Helvetica" font-size="63.0" fill="#FEFFFF" transform="matrix(0.89, 0.45, 0.45, -0.89, 830.4, 447.4)">A</text><text xml:space="preserve" font-family="Helvetica-Light,Helvetica" font-size="63.0" fill="#FEFFFF" transform="matrix(0.89, 0.45, 0.45, -0.89, 867.8, 466.5)">L</text><text xml:space="preserve" font-family="Helvetica-Light,Helvetica" font-size="63.0" fill="#FEFFFF" transform="matrix(0.89, 0.45, 0.45, -0.89, 899.0, 482.5)">A</text><text xml:space="preserve" font-family="Helvetica-Light,Helvetica" font-size="63.0" fill="#FEFFFF" transform="matrix(0.89, 0.45, 0.45, -0.89, 936.4, 501.6)">R</text><text xml:space="preserve" font-family="Helvetica-Light,Helvetica" font-size="63.0" fill="#FEFFFF" transform="matrix(0.89, 0.45, 0.45, -0.89, 973.9, 520.7)">M</text><text xml:space="preserve" font-family="Helvetica-Light,Helvetica" font-size="63.0" fill="#FEFFFF" transform="matrix(0.89, 0.45, 0.45, -0.89, 1020.6, 544.5)">,</text><text xml:space="preserve" font-family="Helvetica-Light,Helvetica" font-size="63.0" fill="#FEFFFF" transform="matrix(0.89, 0.45, 0.45, -0.89, 1036.2, 552.5)"> </text><text xml:space="preserve" font-family="Helvetica-Light,Helvetica" font-size="63.0" fill="#FEFFFF" transform="matrix(0.89, 0.45, 0.45, -0.89, 1051.8, 560.5)">B</text><text xml:space="preserve" font-family="Helvetica-Light,Helvetica" font-size="63.0" fill="#FEFFFF" transform="matrix(0.89, 0.45, 0.45, -0.89, 1089.2, 579.6)">U</text><text xml:space="preserve" font-family="Helvetica-Light,Helvetica" font-size="63.0" fill="#FEFFFF" transform="matrix(0.89, 0.45, 0.45, -0.89, 1129.7, 600.2)">T</text><text xml:space="preserve" font-family="Helvetica-Light,Helvetica" font-size="63.0" fill="#FEFFFF" transform="matrix(0.89, 0.45, 0.45, -0.89, 1160.9, 616.2)"> </text><text xml:space="preserve" font-family="Helvetica-Light,Helvetica" font-size="63.0" fill="#FEFFFF" transform="matrix(0.89, 0.45, 0.45, -0.89, 1176.5, 624.1)">S</text><text xml:space="preserve" font-family="Helvetica-Light,Helvetica" font-size="63.0" fill="#FEFFFF" transform="matrix(0.89, 0.45, 0.45, -0.89, 1210.8, 641.6)">T</text><text xml:space="preserve" font-family="Helvetica-Light,Helvetica" font-size="63.0" fill="#FEFFFF" transform="matrix(0.89, 0.45, 0.45, -0.89, 1242.0, 657.6)">I</text><text xml:space="preserve" font-family="Helvetica-Light,Helvetica" font-size="63.0" fill="#FEFFFF" transform="matrix(0.89, 0.45, 0.45, -0.89, 1257.6, 665.5)">L</text><text xml:space="preserve" font-family="Helvetica-Light,Helvetica" font-size="63.0" fill="#FEFFFF" transform="matrix(0.89, 0.45, 0.45, -0.89, 1288.8, 681.4)">L</text><text xml:space="preserve" font-family="Helvetica-Light,Helvetica" font-size="63.0" fill="#FEFFFF" transform="matrix(0.89, 0.45, 0.45, -0.89, 1320.0, 697.4)">…</text><text xml:space="preserve" font-family="Helvetica-Light,Helvetica" font-size="63.0" fill="#FEFFFF" transform="matrix(0.89, 0.45, 0.45, -0.89, 1376.1, 726.0)"> </text><text xml:space="preserve" font-family="Helvetica-Light,Helvetica" font-size="63.0" fill="#FEFFFF" transform="matrix(0.89, 0.45, 0.45, -0.89, 1391.7, 734.0)">U</text><text xml:space="preserve" font-family="Helvetica-Light,Helvetica" font-size="63.0" fill="#FEFFFF" transform="matrix(0.89, 0.45, 0.45, -0.89, 1432.2, 754.7)">S</text><text xml:space="preserve" font-family="Helvetica-Light,Helvetica" font-size="63.0" fill="#FEFFFF" transform="matrix(0.89, 0.45, 0.45, -0.89, 1466.5, 772.2)">E</text><text xml:space="preserve" font-family="Helvetica-Light,Helvetica" font-size="63.0" fill="#FEFFFF" transform="matrix(0.89, 0.45, 0.45, -0.89, 1500.8, 789.7)">F</text><text xml:space="preserve" font-family="Helvetica-Light,Helvetica" font-size="63.0" fill="#FEFFFF" transform="matrix(0.89, 0.45, 0.45, -0.89, 1532.0, 805.6)">U</text><text xml:space="preserve" font-family="Helvetica-Light,Helvetica" font-size="63.0" fill="#FEFFFF" transform="matrix(0.89, 0.45, 0.45, -0.89, 1572.5, 826.3)">L</text><text xml:space="preserve" font-family="Helvetica-Light,Helvetica" font-size="63.0" fill="#FEFFFF" transform="matrix(0.89, 0.45, 0.45, -0.89, 1603.7, 842.2)">!</text></g></g></g></svg>