<?xml version="1.0" encoding="UTF-8" standalone="no"?><svg xmlns="http://www.w3.org/2000/svg" xmlns:xlink="http://www.w3.org/1999/xlink" clip-rule="evenodd" stroke-miterlimit="10" viewBox="0 0 1920 1080"><desc>SVG generated by Keynote</desc><defs></defs><g transform="matrix(1.00, 0.00, -0.00, -1.00, 0.0, 1080.0)"><path d="M 0.0 1080.0 L 1920.0 1080.0 L 1920.0 0.0 L 0.0 0.0 Z M 0.0 1080.0 " fill="#000000"></path><text xml:space="preserve" font-family="Helvetica-Light,Helvetica" font-size="112.0" fill="#FEFFFF" transform="matrix(1.00, 0.00, -0.00, -1.00, 686.2, 562.8)">S</text><text xml:space="preserve" font-family="Helvetica-Light,Helvetica" font-size="112.0" fill="#FEFFFF" transform="matrix(1.00, 0.00, -0.00, -1.00, 754.6, 562.8)">i</text><text xml:space="preserve" font-family="Helvetica-Light,Helvetica" font-size="112.0" fill="#FEFFFF" transform="matrix(1.00, 0.00, -0.00, -1.00, 779.5, 562.8)">d</text><text xml:space="preserve" font-family="Helvetica-Light,Helvetica" font-size="112.0" fill="#FEFFFF" transform="matrix(1.00, 0.00, -0.00, -1.00, 847.9, 562.8)">e</text><text xml:space="preserve" font-family="Helvetica-Light,Helvetica" font-size="112.0" fill="#FEFFFF" transform="matrix(1.00, 0.00, -0.00, -1.00, 910.2, 562.8)">-</text><text xml:space="preserve" font-family="Helvetica-Light,Helvetica" font-size="112.0" fill="#FEFFFF" transform="matrix(1.00, 0.00, -0.00, -1.00, 947.5, 562.8)">l</text><text xml:space="preserve" font-family="Helvetica-Light,Helvetica" font-size="112.0" fill="#FEFFFF" transform="matrix(1.00, 0.00, -0.00, -1.00, 972.4, 562.8)">i</text><text xml:space="preserve" font-family="Helvetica-Light,Helvetica" font-size="112.0" fill="#FEFFFF" transform="matrix(1.00, 0.00, -0.00, -1.00, 997.2, 562.8)">n</text><text xml:space="preserve" font-family="Helvetica-Light,Helvetica" font-size="112.0" fill="#FEFFFF" transform="matrix(1.00, 0.00, -0.00, -1.00, 1059.5, 562.8)">e</text><text xml:space="preserve" font-family="Helvetica-Light,Helvetica" font-size="112.0" fill="#FEFFFF" transform="matrix(1.00, 0.00, -0.00, -1.00, 1121.8, 562.8)">…</text><text xml:space="preserve" font-family="Helvetica-Light,Helvetica" font-size="70.6" fill="#FEFFFF" transform="matrix(1.00, 0.00, -0.00, -1.00, 148.4, 451.2)">T</text><text xml:space="preserve" font-family="Helvetica-Light,Helvetica" font-size="70.6" fill="#FEFFFF" transform="matrix(1.00, 0.00, -0.00, -1.00, 187.7, 451.2)">h</text><text xml:space="preserve" font-family="Helvetica-Light,Helvetica" font-size="70.6" fill="#FEFFFF" transform="matrix(1.00, 0.00, -0.00, -1.00, 226.9, 451.2)">e</text><text xml:space="preserve" font-family="Helvetica-Light,Helvetica" font-size="70.6" fill="#FEFFFF" transform="matrix(1.00, 0.00, -0.00, -1.00, 266.1, 451.2)"> </text><text xml:space="preserve" font-family="Helvetica-Bold,Helvetica" font-weight="bold" font-size="70.6" fill="#1497FC" transform="matrix(1.00, 0.00, -0.00, -1.00, 285.8, 451.2)">m</text><text xml:space="preserve" font-family="Helvetica-Bold,Helvetica" font-weight="bold" font-size="70.6" fill="#1497FC" transform="matrix(1.00, 0.00, -0.00, -1.00, 348.5, 451.2)">o</text><text xml:space="preserve" font-family="Helvetica-Bold,Helvetica" font-weight="bold" font-size="70.6" fill="#1497FC" transform="matrix(1.00, 0.00, -0.00, -1.00, 391.6, 451.2)">s</text><text xml:space="preserve" font-family="Helvetica-Bold,Helvetica" font-weight="bold" font-size="70.6" fill="#1497FC" transform="matrix(1.00, 0.00, -0.00, -1.00, 430.9, 451.2)">t</text><text xml:space="preserve" font-family="Helvetica-Bold,Helvetica" font-weight="bold" font-size="70.6" fill="#1497FC" transform="matrix(1.00, 0.00, -0.00, -1.00, 454.4, 451.2)"> </text><text xml:space="preserve" font-family="Helvetica-Bold,Helvetica" font-weight="bold" font-size="70.6" fill="#1497FC" transform="matrix(1.00, 0.00, -0.00, -1.00, 473.9, 451.2)">j</text><text xml:space="preserve" font-family="Helvetica-Bold,Helvetica" font-weight="bold" font-size="70.6" fill="#1497FC" transform="matrix(1.00, 0.00, -0.00, -1.00, 493.5, 451.2)">u</text><text xml:space="preserve" font-family="Helvetica-Bold,Helvetica" font-weight="bold" font-size="70.6" fill="#1497FC" transform="matrix(1.00, 0.00, -0.00, -1.00, 536.6, 451.2)">n</text><text xml:space="preserve" font-family="Helvetica-Bold,Helvetica" font-weight="bold" font-size="70.6" fill="#1497FC" transform="matrix(1.00, 0.00, -0.00, -1.00, 579.7, 451.2)">i</text><text xml:space="preserve" font-family="Helvetica-Bold,Helvetica" font-weight="bold" font-size="70.6" fill="#1497FC" transform="matrix(1.00, 0.00, -0.00, -1.00, 599.3, 451.2)">o</text><text xml:space="preserve" font-family="Helvetica-Bold,Helvetica" font-weight="bold" font-size="70.6" fill="#1497FC" transform="matrix(1.00, 0.00, -0.00, -1.00, 642.4, 451.2)">r</text><text xml:space="preserve" font-family="Helvetica-Light,Helvetica" font-size="70.6" fill="#FEFFFF" transform="matrix(1.00, 0.00, -0.00, -1.00, 669.9, 451.2)"> </text><text xml:space="preserve" font-family="Helvetica-Light,Helvetica" font-size="70.6" fill="#FEFFFF" transform="matrix(1.00, 0.00, -0.00, -1.00, 689.5, 451.2)">d</text><text xml:space="preserve" font-family="Helvetica-Light,Helvetica" font-size="70.6" fill="#FEFFFF" transform="matrix(1.00, 0.00, -0.00, -1.00, 732.6, 451.2)">e</text><text xml:space="preserve" font-family="Helvetica-Light,Helvetica" font-size="70.6" fill="#FEFFFF" transform="matrix(1.00, 0.00, -0.00, -1.00, 771.9, 451.2)">v</text><text xml:space="preserve" font-family="Helvetica-Light,Helvetica" font-size="70.6" fill="#FEFFFF" transform="matrix(1.00, 0.00, -0.00, -1.00, 807.1, 451.2)">e</text><text xml:space="preserve" font-family="Helvetica-Light,Helvetica" font-size="70.6" fill="#FEFFFF" transform="matrix(1.00, 0.00, -0.00, -1.00, 846.4, 451.2)">l</text><text xml:space="preserve" font-family="Helvetica-Light,Helvetica" font-size="70.6" fill="#FEFFFF" transform="matrix(1.00, 0.00, -0.00, -1.00, 862.0, 451.2)">o</text><text xml:space="preserve" font-family="Helvetica-Light,Helvetica" font-size="70.6" fill="#FEFFFF" transform="matrix(1.00, 0.00, -0.00, -1.00, 901.3, 451.2)">p</text><text xml:space="preserve" font-family="Helvetica-Light,Helvetica" font-size="70.6" fill="#FEFFFF" transform="matrix(1.00, 0.00, -0.00, -1.00, 944.4, 451.2)">e</text><text xml:space="preserve" font-family="Helvetica-Light,Helvetica" font-size="70.6" fill="#FEFFFF" transform="matrix(1.00, 0.00, -0.00, -1.00, 983.6, 451.2)">r</text><text xml:space="preserve" font-family="Helvetica-Light,Helvetica" font-size="70.6" fill="#FEFFFF" transform="matrix(1.00, 0.00, -0.00, -1.00, 1007.1, 451.2)"> </text><text xml:space="preserve" font-family="Helvetica-Light,Helvetica" font-size="70.6" fill="#FEFFFF" transform="matrix(1.00, 0.00, -0.00, -1.00, 1026.7, 451.2)">s</text><text xml:space="preserve" font-family="Helvetica-Light,Helvetica" font-size="70.6" fill="#FEFFFF" transform="matrix(1.00, 0.00, -0.00, -1.00, 1062.0, 451.2)">h</text><text xml:space="preserve" font-family="Helvetica-Light,Helvetica" font-size="70.6" fill="#FEFFFF" transform="matrix(1.00, 0.00, -0.00, -1.00, 1101.2, 451.2)">o</text><text xml:space="preserve" font-family="Helvetica-Light,Helvetica" font-size="70.6" fill="#FEFFFF" transform="matrix(1.00, 0.00, -0.00, -1.00, 1140.5, 451.2)">u</text><text xml:space="preserve" font-family="Helvetica-Light,Helvetica" font-size="70.6" fill="#FEFFFF" transform="matrix(1.00, 0.00, -0.00, -1.00, 1179.7, 451.2)">l</text><text xml:space="preserve" font-family="Helvetica-Light,Helvetica" font-size="70.6" fill="#FEFFFF" transform="matrix(1.00, 0.00, -0.00, -1.00, 1195.4, 451.2)">d</text><text xml:space="preserve" font-family="Helvetica-Light,Helvetica" font-size="70.6" fill="#FEFFFF" transform="matrix(1.00, 0.00, -0.00, -1.00, 1238.5, 451.2)"> </text><text xml:space="preserve" font-family="Helvetica-Bold,Helvetica" font-weight="bold" font-size="70.6" fill="#1497FC" transform="matrix(1.00, 0.00, -0.00, -1.00, 1258.1, 451.2)">d</text><text xml:space="preserve" font-family="Helvetica-Bold,Helvetica" font-weight="bold" font-size="70.6" fill="#1497FC" transform="matrix(1.00, 0.00, -0.00, -1.00, 1301.2, 451.2)">o</text><text xml:space="preserve" font-family="Helvetica-Bold,Helvetica" font-weight="bold" font-size="70.6" fill="#1497FC" transform="matrix(1.00, 0.00, -0.00, -1.00, 1344.3, 451.2)"> </text><text xml:space="preserve" font-family="Helvetica-Bold,Helvetica" font-weight="bold" font-size="70.6" fill="#1497FC" transform="matrix(1.00, 0.00, -0.00, -1.00, 1363.9, 451.2)">t</text><text xml:space="preserve" font-family="Helvetica-Bold,Helvetica" font-weight="bold" font-size="70.6" fill="#1497FC" transform="matrix(1.00, 0.00, -0.00, -1.00, 1387.4, 451.2)">h</text><text xml:space="preserve" font-family="Helvetica-Bold,Helvetica" font-weight="bold" font-size="70.6" fill="#1497FC" transform="matrix(1.00, 0.00, -0.00, -1.00, 1430.4, 451.2)">e</text><text xml:space="preserve" font-family="Helvetica-Bold,Helvetica" font-weight="bold" font-size="70.6" fill="#1497FC" transform="matrix(1.00, 0.00, -0.00, -1.00, 1469.7, 451.2)"> </text><text xml:space="preserve" font-family="Helvetica-Bold,Helvetica" font-weight="bold" font-size="70.6" fill="#1497FC" transform="matrix(1.00, 0.00, -0.00, -1.00, 1489.3, 451.2)">r</text><text xml:space="preserve" font-family="Helvetica-Bold,Helvetica" font-weight="bold" font-size="70.6" fill="#1497FC" transform="matrix(1.00, 0.00, -0.00, -1.00, 1516.8, 451.2)">o</text><text xml:space="preserve" font-family="Helvetica-Bold,Helvetica" font-weight="bold" font-size="70.6" fill="#1497FC" transform="matrix(1.00, 0.00, -0.00, -1.00, 1559.9, 451.2)">l</text><text xml:space="preserve" font-family="Helvetica-Bold,Helvetica" font-weight="bold" font-size="70.6" fill="#1497FC" transform="matrix(1.00, 0.00, -0.00, -1.00, 1579.4, 451.2)">l</text><text xml:space="preserve" font-family="Helvetica-Bold,Helvetica" font-weight="bold" font-size="70.6" fill="#1497FC" transform="matrix(1.00, 0.00, -0.00, -1.00, 1599.0, 451.2)">o</text><text xml:space="preserve" font-family="Helvetica-Bold,Helvetica" font-weight="bold" font-size="70.6" fill="#1497FC" transform="matrix(1.00, 0.00, -0.00, -1.00, 1642.1, 451.2)">u</text><text xml:space="preserve" font-family="Helvetica-Bold,Helvetica" font-weight="bold" font-size="70.6" fill="#1497FC" transform="matrix(1.00, 0.00, -0.00, -1.00, 1685.2, 451.2)">t</text><text xml:space="preserve" font-family="Helvetica-Bold,Helvetica" font-weight="bold" font-size="70.6" fill="#1497FC" transform="matrix(1.00, 0.00, -0.00, -1.00, 1708.7, 451.2)">s</text><text xml:space="preserve" font-family="Helvetica-Light,Helvetica" font-size="70.6" fill="#FEFFFF" transform="matrix(1.00, 0.00, -0.00, -1.00, 1748.1, 451.2)">!</text></g></svg>